<?xml version="1.0" encoding="utf-8"?>
<!-- Generator: Adobe Illustrator 19.0.0, SVG Export Plug-In . SVG Version: 6.00 Build 0)  -->
<svg version="1.1" id="Layer_1" xmlns="http://www.w3.org/2000/svg" xmlns:xlink="http://www.w3.org/1999/xlink" x="0px" y="0px"
	 viewBox="-313.5 144.8 690 430" style="enable-background:new -313.5 144.8 690 430;" xml:space="preserve">
<style type="text/css">
	.st0{fill:#FFFFFF;}
	.st1{font-family:'Montserrat-Regular';}
	.st2{font-size:77.7993px;}
	.st3{fill:#73BE44;}
</style>
<g id="XMLID_29_">
	<text transform="matrix(1 0 0 1 -304.7177 229.4283)" class="st0 st1 st2">Custom Software</text>
	<text transform="matrix(1 0 0 1 -242.2177 322.8283)" class="st0 st1 st2">Development.</text>
	<text transform="matrix(1 0 0 1 -187.7177 416.1283)" class="st0 st1 st2">With Heart.</text>
	<g>
		<path id="XMLID_28_" class="st3" d="M1.8,463.8c-4.9,0-9.5,0-14.5,0c0-4.8,0-9.6,0-14.7c4.8,0,9.6,0,14.5,0
			C1.8,454,1.8,458.8,1.8,463.8z"/>
		<path id="XMLID_27_" class="st3" d="M-12.9,519.3c0-4.9,0-9.7,0-14.7c4.9,0,9.7,0,14.7,0c0,5,0,9.7,0,14.7
			C-3.1,519.3-7.7,519.3-12.9,519.3z"/>
		<path id="XMLID_26_" class="st3" d="M-31.3,486.1c5,0,9.7,0,14.5,0c0,5,0,9.7,0,14.7c-4.8,0-9.5,0-14.5,0
			C-31.3,496-31.3,491.1-31.3,486.1z"/>
		<path id="XMLID_25_" class="st3" d="M-12.8,500.7c0-5,0-9.7,0-14.7c4.9,0,9.6,0,14.5,0c0,4.9,0,9.6,0,14.7
			C-3,500.7-7.8,500.7-12.8,500.7z"/>
		<path id="XMLID_24_" class="st3" d="M-31.4,482.2c0-5,0-9.7,0-14.7c4.9,0,9.6,0,14.6,0c0,4.8,0,9.6,0,14.7
			C-21.5,482.2-26.3,482.2-31.4,482.2z"/>
		<path id="XMLID_23_" class="st3" d="M1.8,467.6c0,5,0,9.7,0,14.6c-4.9,0-9.7,0-14.7,0c0-4.8,0-9.6,0-14.6
			C-8,467.6-3.2,467.6,1.8,467.6z"/>
		<path id="XMLID_22_" class="st3" d="M24.3,523c4.8,0,9.5,0,14.4,0c0,4.9,0,9.7,0,14.7c-4.7,0-9.4,0-14.4,0
			C24.3,532.9,24.3,528.1,24.3,523z"/>
		<path id="XMLID_21_" class="st3" d="M5.6,463.7c0-4.9,0-9.6,0-14.5c4.9,0,9.6,0,14.6,0c0,4.8,0,9.5,0,14.5
			C15.5,463.7,10.8,463.7,5.6,463.7z"/>
		<path id="XMLID_20_" class="st3" d="M57.3,463.8c-4.8,0-9.5,0-14.4,0c0-4.8,0-9.6,0-14.6c4.7,0,9.5,0,14.4,0
			C57.3,454,57.3,458.8,57.3,463.8z"/>
		<path id="XMLID_19_" class="st3" d="M61.3,463.7c0-5,0-9.7,0-14.6c4.8,0,9.5,0,14.4,0c0,4.8,0,9.5,0,14.6
			C71,463.7,66.3,463.7,61.3,463.7z"/>
		<path id="XMLID_18_" class="st3" d="M20.2,482.2c-5,0-9.6,0-14.5,0c0-5,0-9.7,0-14.7c4.8,0,9.5,0,14.5,0
			C20.2,472.4,20.2,477.2,20.2,482.2z"/>
		<path id="XMLID_17_" class="st3" d="M38.7,500.8c-4.8,0-9.5,0-14.4,0c0-4.9,0-9.7,0-14.7c4.8,0,9.5,0,14.4,0
			C38.7,490.9,38.7,495.7,38.7,500.8z"/>
		<path id="XMLID_16_" class="st3" d="M57.3,500.8c-5,0-9.7,0-14.6,0c0-4.9,0-9.7,0-14.7c4.9,0,9.6,0,14.6,0
			C57.3,491,57.3,495.8,57.3,500.8z"/>
		<path id="XMLID_15_" class="st3" d="M61.2,500.8c0-5,0-9.7,0-14.7c4.8,0,9.5,0,14.5,0c0,4.8,0,9.6,0,14.7
			C70.9,500.8,66.3,500.8,61.2,500.8z"/>
		<path id="XMLID_14_" class="st3" d="M94.3,500.8c-4.7,0-9.4,0-14.4,0c0-4.8,0-9.7,0-14.7c4.7,0,9.4,0,14.4,0
			C94.3,490.9,94.3,495.8,94.3,500.8z"/>
		<path id="XMLID_13_" class="st3" d="M79.9,467.5c4.8,0,9.4,0,14.4,0c0,4.9,0,9.7,0,14.8c-4.8,0-9.5,0-14.4,0
			C79.9,477.4,79.9,472.5,79.9,467.5z"/>
		<path id="XMLID_12_" class="st3" d="M61.4,467.5c4.9,0,9.6,0,14.4,0c0,5,0,9.7,0,14.7c-4.8,0-9.5,0-14.4,0
			C61.4,477.4,61.4,472.6,61.4,467.5z"/>
		<path id="XMLID_11_" class="st3" d="M5.8,486.1c4.8,0,9.5,0,14.4,0c0,4.9,0,9.7,0,14.7c-4.8,0-9.4,0-14.4,0
			C5.8,495.9,5.8,491.1,5.8,486.1z"/>
		<path id="XMLID_10_" class="st3" d="M20.2,519.3c-5,0-9.6,0-14.5,0c0-5,0-9.7,0-14.7c4.8,0,9.5,0,14.5,0
			C20.2,509.4,20.2,514.2,20.2,519.3z"/>
		<path id="XMLID_9_" class="st3" d="M38.7,519.3c-4.9,0-9.4,0-14.3,0c0-4.9,0-9.8,0-14.8c4.8,0,9.4,0,14.3,0
			C38.7,509.4,38.7,514.2,38.7,519.3z"/>
		<path id="XMLID_8_" class="st3" d="M42.7,519.3c0-5,0-9.7,0-14.7c4.8,0,9.5,0,14.5,0c0,4.9,0,9.7,0,14.7
			C52.5,519.3,47.8,519.3,42.7,519.3z"/>
		<path id="XMLID_7_" class="st3" d="M61.2,519.3c0-5,0-9.7,0-14.7c4.8,0,9.5,0,14.5,0c0,4.8,0,9.7,0,14.7
			C70.9,519.3,66.3,519.3,61.2,519.3z"/>
		<path id="XMLID_6_" class="st3" d="M57.3,467.5c0,5,0,9.8,0,14.7c-4.8,0-9.5,0-14.4,0c0-4.9,0-9.7,0-14.7
			C47.6,467.5,52.2,467.5,57.3,467.5z"/>
		<path id="XMLID_5_" class="st3" d="M24.3,482.2c0-4.8,0-9.6,0-14.6c4.8,0,9.4,0,14.4,0c0,4.8,0,9.6,0,14.6
			C34,482.2,29.3,482.2,24.3,482.2z"/>
		<path id="XMLID_4_" class="st3" d="M20.4,523.1c0,5,0,9.7,0,14.6c-4.8,0-9.5,0-14.6,0c0-4.8,0-9.6,0-14.6
			C10.6,523.1,15.3,523.1,20.4,523.1z"/>
		<path id="XMLID_3_" class="st3" d="M57.2,537.8c-4.8,0-9.5,0-14.4,0c0-4.9,0-9.7,0-14.7c4.8,0,9.5,0,14.4,0
			C57.2,527.9,57.2,532.7,57.2,537.8z"/>
		<path id="XMLID_1_" class="st3" d="M24.3,556.2c0-4.9,0-9.6,0-14.6c4.8,0,9.5,0,14.4,0c0,4.8,0,9.6,0,14.6
			C34,556.2,29.3,556.2,24.3,556.2z"/>
	</g>
</g>
</svg>
